# xmcd
#
# Track frame offsets:
#	150
#	2718
#	14371
#	28002
#	31094
#	39277
#	40110
#	55215
#	66945
#	69192
#	81869
#	84728
#	112935
#	128668
#	130297
#	140619
#	160916
#	161877
#	175345
#	200678
#	201935
#	226897
#
# Disc length: 3309 seconds
#
# Revision: 1
# Processed by: cddbd v1.5.2PL0 Copyright (c) Steve Scherf et al.
# Submitted via: audiograbber 1.83.01
#
DISCID=260ceb16
DTITLE=Various Artist - The Amazing Zigzag Concert [CD3]
DYEAR=2010
DGENRE=Country Rock
TTITLE0=M.C. - Introduction
TTITLE1=John Stewart - Wheatfield Lady
TTITLE2=John Stewart - Daydream Believer
TTITLE3=John Stewart - Introduction: You Can't Look Back
TTITLE4=John Stewart - You Can't Look Back
TTITLE5=John Stewart - Introduction: California Bloodlines
TTITLE6=John Stewart - California Bloodlines
TTITLE7=John Stewart - Armstrong
TTITLE8=John Stewart - Introduction: Road Away
TTITLE9=John Stewart - Road Away
TTITLE10=John Stewart - Thanks to Pete Thomas and Introduction: Last Campaign Tri
TTITLE10=logy
TTITLE11=John Stewart - Last Campaign Trilogy
TTITLE12=John Stewart - July You're A Woman
TTITLE13=John Stewart - Introduction: Runaway Fool Of Love
TTITLE14=John Stewart - Runaway Fool Of Love
TTITLE15=John Stewart - Lady And The Outlaw
TTITLE16=John Stewart - Introduction: Cops
TTITLE17=John Stewart - Cops
TTITLE18=John Stewart - Mother Country
TTITLE19=John Stewart - Thanks
TTITLE20=John Stewart - Never Goin' Back (To Nashville Anymore)
TTITLE21=John Stewart - Let The Big Horse Run
EXTD=
EXTT0=
EXTT1=
EXTT2=
EXTT3=
EXTT4=
EXTT5=
EXTT6=
EXTT7=
EXTT8=
EXTT9=
EXTT10=
EXTT11=
EXTT12=
EXTT13=
EXTT14=
EXTT15=
EXTT16=
EXTT17=
EXTT18=
EXTT19=
EXTT20=
EXTT21=
PLAYORDER=
